<?xml version="1.0" encoding="utf-8"?>
<!-- Generator: Adobe Illustrator 22.0.1, SVG Export Plug-In . SVG Version: 6.00 Build 0)  -->
<svg version="1.1" xmlns="http://www.w3.org/2000/svg" xmlns:xlink="http://www.w3.org/1999/xlink" x="0px" y="0px"
	 viewBox="0 0 1920 1080" style="enable-background:new 0 0 1920 1080;" xml:space="preserve">
<style type="text/css">
	.st0{fill:#343434;stroke:#343434;stroke-width:1.51;}
	.st1{fill:#494949;stroke:#494949;stroke-width:1.51;}
	.st2{fill:#484848;stroke:#484848;stroke-width:1.51;}
	.st3{fill:#3E3E3E;stroke:#3E3E3E;stroke-width:1.51;}
	.st4{fill:#585858;stroke:#585858;stroke-width:1.51;}
	.st5{fill:#525252;stroke:#525252;stroke-width:1.51;}
	.st6{fill:#383838;stroke:#383838;stroke-width:1.51;}
	.st7{fill:#262626;stroke:#262626;stroke-width:1.51;}
	.st8{fill:#292929;stroke:#292929;stroke-width:1.51;}
	.st9{fill:#363636;stroke:#363636;stroke-width:1.51;}
	.st10{fill:#2D2D2D;stroke:#2D2D2D;stroke-width:1.51;}
	.st11{fill:#333333;stroke:#333333;stroke-width:1.51;}
	.st12{fill:#3B3B3B;stroke:#3B3B3B;stroke-width:1.51;}
	.st13{fill:#373737;stroke:#373737;stroke-width:1.51;}
	.st14{fill:#303030;stroke:#303030;stroke-width:1.51;}
	.st15{fill:#353535;stroke:#353535;stroke-width:1.51;}
	.st16{fill:#4B4B4B;stroke:#4B4B4B;stroke-width:1.51;}
	.st17{fill:#2B2B2B;stroke:#2B2B2B;stroke-width:1.51;}
	.st18{fill:#3D3D3D;stroke:#3D3D3D;stroke-width:1.51;}
	.st19{fill:#3A3A3A;stroke:#3A3A3A;stroke-width:1.51;}
	.st20{fill:#2A2A2A;stroke:#2A2A2A;stroke-width:1.51;}
	.st21{fill:#323232;stroke:#323232;stroke-width:1.51;}
	.st22{fill:#252525;stroke:#252525;stroke-width:1.51;}
	.st23{fill:#2C2C2C;stroke:#2C2C2C;stroke-width:1.51;}
	.st24{fill:#242424;stroke:#242424;stroke-width:1.51;}
	.st25{fill:#414141;stroke:#414141;stroke-width:1.51;}
	.st26{fill:#1D1D1D;stroke:#1D1D1D;stroke-width:1.51;}
	.st27{fill:#2E2E2E;stroke:#2E2E2E;stroke-width:1.51;}
	.st28{fill:#282828;stroke:#282828;stroke-width:1.51;}
	.st29{fill:#1B1B1B;stroke:#1B1B1B;stroke-width:1.51;}
	.st30{fill:#111111;stroke:#111111;stroke-width:1.51;}
	.st31{fill:#131313;stroke:#131313;stroke-width:1.51;}
	.st32{fill:#222222;stroke:#222222;stroke-width:1.51;}
	.st33{fill:#1F1F1F;stroke:#1F1F1F;stroke-width:1.51;}
	.st34{fill:#272727;stroke:#272727;stroke-width:1.51;}
	.st35{fill:#212121;stroke:#212121;stroke-width:1.51;}
	.st36{fill:#171717;stroke:#171717;stroke-width:1.51;}
	.st37{fill:#3F3F3F;stroke:#3F3F3F;stroke-width:1.51;}
	.st38{fill:#545454;stroke:#545454;stroke-width:1.51;}
	.st39{fill:#2F2F2F;stroke:#2F2F2F;stroke-width:1.51;}
	.st40{fill:#393939;stroke:#393939;stroke-width:1.51;}
	.st41{fill:#555555;stroke:#555555;stroke-width:1.51;}
	.st42{fill:#4A4A4A;stroke:#4A4A4A;stroke-width:1.51;}
	.st43{fill:#202020;stroke:#202020;stroke-width:1.51;}
	.st44{fill:#313131;stroke:#313131;stroke-width:1.51;}
	.st45{fill:#454545;stroke:#454545;stroke-width:1.51;}
	.st46{fill:#595959;stroke:#595959;stroke-width:1.51;}
	.st47{fill:#4C4C4C;stroke:#4C4C4C;stroke-width:1.51;}
	.st48{fill:#515151;stroke:#515151;stroke-width:1.51;}
	.st49{fill:#565656;stroke:#565656;stroke-width:1.51;}
	.st50{fill:#4E4E4E;stroke:#4E4E4E;stroke-width:1.51;}
	.st51{fill:#535353;stroke:#535353;stroke-width:1.51;}
	.st52{fill:#4D4D4D;stroke:#4D4D4D;stroke-width:1.51;}
	.st53{fill:#505050;stroke:#505050;stroke-width:1.51;}
</style>
<g id="Livello_125">
	<path class="st0" d="M-115,1376l-172-16l892,145L-115,1376z"/>
</g>
<g id="Livello_124">
	<path class="st1" d="M837-438l310,93l327,1L837-438z"/>
</g>
<g id="Livello_123">
	<path class="st2" d="M837-438l637,94l172,2L837-438z"/>
</g>
<g id="Livello_122">
	<path class="st3" d="M2073,1333l-426,172l549-153L2073,1333z"/>
</g>
<g id="Livello_121">
	<path class="st4" d="M1646-342l392,28l211-14L1646-342z"/>
</g>
<g id="Livello_120">
	<path class="st5" d="M837-438l809,96l603,14L837-438z"/>
</g>
<g id="Livello_119">
	<path class="st6" d="M1914,259l37,359l392-410L1914,259z"/>
</g>
<g id="Livello_118">
	<path class="st0" d="M2249-328l-5,343l99,193L2249-328z"/>
</g>
<g id="Livello_117">
	<path class="st7" d="M1997,798l238,84l131-281L1997,798z"/>
</g>
<g id="Livello_116">
	<path class="st8" d="M1951,618l46,180l369-197L1951,618z"/>
</g>
<g id="Livello_115">
	<path class="st9" d="M2220,1116l-24,236l170-751L2220,1116z"/>
</g>
<g id="Livello_114">
	<path class="st10" d="M2235,882l-15,234l146-515L2235,882z"/>
</g>
<g id="Livello_113">
	<path class="st11" d="M2343,208l-392,410l415-17L2343,208z"/>
</g>
<g id="Livello_112">
	<path class="st12" d="M1980-97l264,112l5-343L1980-97z"/>
</g>
<g id="Livello_111">
	<path class="st13" d="M2244,15l-330,244l429-51L2244,15z"/>
</g>
<g id="Livello_110">
	<path class="st3" d="M2061,1218l135,134l24-236L2061,1218z"/>
</g>
<g id="Livello_109">
	<path class="st9" d="M1997,798l64,420l159-102L1997,798z"/>
</g>
<g id="Livello_108">
	<path class="st14" d="M1997,798l223,318l15-234L1997,798z"/>
</g>
<g id="Livello_107">
	<path class="st15" d="M1980-97l-66,356l330-244L1980-97z"/>
</g>
<g id="Livello_106">
	<path class="st16" d="M2038-314l-58,217l269-231L2038-314z"/>
</g>
<g id="Livello_105">
	<path class="st3" d="M2061,1218l12,115l123,19L2061,1218z"/>
</g>
<g id="Livello_104">
	<path class="st17" d="M1160,1365l-555,140h1042L1160,1365z"/>
</g>
<g id="Livello_103">
	<path class="st15" d="M1997,798l-365,336l429,84L1997,798z"/>
</g>
<g id="Livello_102">
	<path class="st18" d="M2061,1218l-429-84l441,199L2061,1218z"/>
</g>
<g id="Livello_101">
	<path class="st19" d="M1632,1134l15,371l426-172L1632,1134z"/>
</g>
<g id="Livello_100">
	<path class="st0" d="M1684,20l230,239l66-356L1684,20z"/>
</g>
<g id="Livello_99">
	<path class="st20" d="M1641,805l-9,329l365-336L1641,805z"/>
</g>
<g id="Livello_98">
	<path class="st11" d="M1684,20l69,217l161,22L1684,20z"/>
</g>
<g id="Livello_97">
	<path class="st21" d="M1914,259l-251,231l288,128L1914,259z"/>
</g>
<g id="Livello_96">
	<path class="st16" d="M1646-342l334,245l58-217L1646-342z"/>
</g>
<g id="Livello_95">
	<path class="st22" d="M1951,618l-310,187l356-7L1951,618z"/>
</g>
<g id="Livello_94">
	<path class="st23" d="M1454,1407l-294-42l487,140L1454,1407z"/>
</g>
<g id="Livello_93">
	<path class="st9" d="M1753,237l-90,253l251-231L1753,237z"/>
</g>
<g id="Livello_92">
	<path class="st13" d="M1646-342l38,362l296-117L1646-342z"/>
</g>
<g id="Livello_91">
	<path class="st7" d="M1663,490l-22,315l310-187L1663,490z"/>
</g>
<g id="Livello_90">
	<path class="st0" d="M755,1416l-150,89l555-140L755,1416z"/>
</g>
<g id="Livello_89">
	<path class="st24" d="M1493,827l139,307l9-329L1493,827z"/>
</g>
<g id="Livello_88">
	<path class="st21" d="M1632,1134l-178,273l193,98L1632,1134z"/>
</g>
<g id="Livello_87">
	<path class="st21" d="M1646-342l-187,212l225,150L1646-342z"/>
</g>
<g id="Livello_86">
	<path class="st17" d="M1684,20l-368,150l437,67L1684,20z"/>
</g>
<g id="Livello_85">
	<path class="st10" d="M1316,170l347,320l90-253L1316,170z"/>
</g>
<g id="Livello_84">
	<path class="st22" d="M1493,827l-143,239l282,68L1493,827z"/>
</g>
<g id="Livello_83">
	<path class="st25" d="M1474-344l-15,214l187-212L1474-344z"/>
</g>
<g id="Livello_82">
	<path class="st26" d="M1493,827l148-22l22-315L1493,827z"/>
</g>
<g id="Livello_81">
	<path class="st26" d="M1317,536l176,291l170-337L1317,536z"/>
</g>
<g id="Livello_80">
	<path class="st22" d="M1316,170l1,366l346-46L1316,170z"/>
</g>
<g id="Livello_79">
	<path class="st22" d="M1459-130l-143,300l368-150L1459-130z"/>
</g>
<g id="Livello_78">
	<path class="st27" d="M1350,1066l104,341l178-273L1350,1066z"/>
</g>
<g id="Livello_77">
	<path class="st28" d="M1350,1066l-190,299l294,42L1350,1066z"/>
</g>
<g id="Livello_76">
	<path class="st19" d="M1147-345l312,215l15-214L1147-345z"/>
</g>
<g id="Livello_75">
	<path class="st29" d="M1179,904l171,162l143-239L1179,904z"/>
</g>
<g id="Livello_74">
	<path class="st30" d="M1317,536l-138,368l314-77L1317,536z"/>
</g>
<g id="Livello_73">
	<path class="st26" d="M1089-48l227,218l143-300L1089-48z"/>
</g>
<g id="Livello_72">
	<path class="st8" d="M1147-345l-58,297l370-82L1147-345z"/>
</g>
<g id="Livello_71">
	<path class="st31" d="M1134,573l45,331l138-368L1134,573z"/>
</g>
<g id="Livello_70">
	<path class="st32" d="M1316,170l-280,32l281,334L1316,170z"/>
</g>
<g id="Livello_69">
	<path class="st33" d="M1036,202l98,371l183-37L1036,202z"/>
</g>
<g id="Livello_68">
	<path class="st33" d="M1179,904l-99,232l270-70L1179,904z"/>
</g>
<g id="Livello_67">
	<path class="st34" d="M1080,1136l80,229l190-299L1080,1136z"/>
</g>
<g id="Livello_66">
	<path class="st35" d="M1089-48l-53,250l280-32L1089-48z"/>
</g>
<g id="Livello_65">
	<path class="st26" d="M872,509l-96,334l358-270L872,509z"/>
</g>
<g id="Livello_64">
	<path class="st22" d="M1036,202L872,509l262,64L1036,202z"/>
</g>
<g id="Livello_63">
	<path class="st36" d="M1134,573L776,843l403,61L1134,573z"/>
</g>
<g id="Livello_62">
	<path class="st35" d="M776,843l304,293l99-232L776,843z"/>
</g>
<g id="Livello_61">
	<path class="st21" d="M837-438L826-4l263-44L837-438z"/>
</g>
<g id="Livello_60">
	<path class="st37" d="M837-438l252,390l58-297L837-438z"/>
</g>
<g id="Livello_59">
	<path class="st27" d="M1080,1136l-325,280l405-51L1080,1136z"/>
</g>
<g id="Livello_58">
	<path class="st21" d="M788,1139l-33,277l325-280L788,1139z"/>
</g>
<g id="Livello_57">
	<path class="st20" d="M776,843l12,296l292-3L776,843z"/>
</g>
<g id="Livello_56">
	<path class="st23" d="M821,219l51,290l164-307L821,219z"/>
</g>
<g id="Livello_55">
	<path class="st7" d="M826-4l210,206l53-250L826-4z"/>
</g>
<g id="Livello_54">
	<path class="st20" d="M826-4l-5,223l215-17L826-4z"/>
</g>
<g id="Livello_53">
	<path class="st35" d="M449,597l27,158l300,88L449,597z"/>
</g>
<g id="Livello_52">
	<path class="st18" d="M479-135L826-4l11-434L479-135z"/>
</g>
<g id="Livello_51">
	<path class="st38" d="M518-429l-39,294l358-303L518-429z"/>
</g>
<g id="Livello_50">
	<path class="st22" d="M449,597l327,246l96-334L449,597z"/>
</g>
<g id="Livello_49">
	<path class="st10" d="M597,335L449,597l423-88L597,335z"/>
</g>
<g id="Livello_48">
	<path class="st14" d="M821,219L597,335l275,174L821,219z"/>
</g>
<g id="Livello_47">
	<path class="st15" d="M270,1340l-385,36l720,129L270,1340z"/>
</g>
<g id="Livello_46">
	<path class="st39" d="M597,335l224-116l5-223L597,335z"/>
</g>
<g id="Livello_45">
	<path class="st14" d="M479-135l118,470L826-4L479-135z"/>
</g>
<g id="Livello_44">
	<path class="st21" d="M776,843l-305,340l317-44L776,843z"/>
</g>
<g id="Livello_43">
	<path class="st40" d="M471,1183l284,233l33-277L471,1183z"/>
</g>
<g id="Livello_42">
	<path class="st20" d="M476,755l-5,428l305-340L476,755z"/>
</g>
<g id="Livello_41">
	<path class="st40" d="M471,1183l134,322l150-89L471,1183z"/>
</g>
<g id="Livello_40">
	<path class="st34" d="M296,794l175,389l5-428L296,794z"/>
</g>
<g id="Livello_39">
	<path class="st41" d="M-103-398l293,93l328-124L-103-398z"/>
</g>
<g id="Livello_38">
	<path class="st39" d="M479-135L201,186l396,149L479-135z"/>
</g>
<g id="Livello_37">
	<path class="st13" d="M471,1183l-201,157l335,165L471,1183z"/>
</g>
<g id="Livello_36">
	<path class="st20" d="M204,528l245,69l148-262L204,528z"/>
</g>
<g id="Livello_35">
	<path class="st14" d="M201,186l3,342l393-193L201,186z"/>
</g>
<g id="Livello_34">
	<path class="st27" d="M296,794l-65,344l240,45L296,794z"/>
</g>
<g id="Livello_33">
	<path class="st17" d="M157-127l44,313l278-321L157-127z"/>
</g>
<g id="Livello_32">
	<path class="st42" d="M190-305l289,170l39-294L190-305z"/>
</g>
<g id="Livello_31">
	<path class="st43" d="M449,597L296,794l180-39L449,597z"/>
</g>
<g id="Livello_30">
	<path class="st19" d="M190-305l-33,178l322-8L190-305z"/>
</g>
<g id="Livello_29">
	<path class="st15" d="M231,1138l39,202l201-157L231,1138z"/>
</g>
<g id="Livello_28">
	<path class="st32" d="M204,528l92,266l153-197L204,528z"/>
</g>
<g id="Livello_27">
	<path class="st22" d="M-28,833l259,305l65-344L-28,833z"/>
</g>
<g id="Livello_26">
	<path class="st26" d="M204,528L-28,833l324-39L204,528z"/>
</g>
<g id="Livello_25">
	<path class="st39" d="M201,186l-311,67l314,275L201,186z"/>
</g>
<g id="Livello_24">
	<path class="st21" d="M-110,253l7,244l307,31L-110,253z"/>
</g>
<g id="Livello_23">
	<path class="st11" d="M231,1138l-346,238l385-36L231,1138z"/>
</g>
<g id="Livello_22">
	<path class="st8" d="M157-127L-65-64l266,250L157-127z"/>
</g>
<g id="Livello_21">
	<path class="st7" d="M-103,497l75,336l232-305L-103,497z"/>
</g>
<g id="Livello_20">
	<path class="st39" d="M-28,833l-99,262l358,43L-28,833z"/>
</g>
<g id="Livello_19">
	<path class="st19" d="M-127,1095l12,281l346-238L-127,1095z"/>
</g>
<g id="Livello_18">
	<path class="st44" d="M-65-64l-45,317l311-67L-65-64z"/>
</g>
<g id="Livello_17">
	<path class="st25" d="M-103-398l38,334l222-63L-103-398z"/>
</g>
<g id="Livello_16">
	<path class="st45" d="M-103-398l260,271l33-178L-103-398z"/>
</g>
<g id="Livello_15">
	<path class="st45" d="M-383-23l273,276l45-317L-383-23z"/>
</g>
<g id="Livello_14">
	<path class="st46" d="M-103-398l-189,90L-65-64L-103-398z"/>
</g>
<g id="Livello_13">
	<path class="st18" d="M-354,804l227,291l99-262L-354,804z"/>
</g>
<g id="Livello_12">
	<path class="st9" d="M-103,497l-198,94l273,242L-103,497z"/>
</g>
<g id="Livello_11">
	<path class="st40" d="M-301,591l-53,213l326,29L-301,591z"/>
</g>
<g id="Livello_10">
	<path class="st47" d="M-127,1095l-160,265l172,16L-127,1095z"/>
</g>
<g id="Livello_9">
	<path class="st47" d="M-110,253l-298,9l305,235L-110,253z"/>
</g>
<g id="Livello_8">
	<path class="st48" d="M-292-308l-91,285l318-41L-292-308z"/>
</g>
<g id="Livello_7">
	<path class="st49" d="M-389,1110l102,250l160-265L-389,1110z"/>
</g>
<g id="Livello_6">
	<path class="st50" d="M-354,804l-35,306l262-15L-354,804z"/>
</g>
<g id="Livello_5">
	<path class="st51" d="M-383-23l-25,285l298-9L-383-23z"/>
</g>
<g id="Livello_4">
	<path class="st52" d="M-408,262l107,329l198-94L-408,262z"/>
</g>
<g id="Livello_3">
	<path class="st53" d="M-408,262l54,542l53-213L-408,262z"/>
</g>
<g id="Livello_2">
	<path class="st42" d="M-408,262l19,848l35-306L-408,262z"/>
</g>
</svg>
