<?xml version="1.0" encoding="utf-8"?>
<!-- Generator: Adobe Illustrator 22.0.1, SVG Export Plug-In . SVG Version: 6.00 Build 0)  -->
<svg version="1.1" id="Livello_1" xmlns="http://www.w3.org/2000/svg" xmlns:xlink="http://www.w3.org/1999/xlink" x="0px" y="0px"
	 viewBox="0 0 540 264" style="enable-background:new 0 0 540 264;" xml:space="preserve">
<style type="text/css">
	.st0{fill:#4B9FD8;}
	.st1{fill:#FFFFFF;}
</style>
<g>
	<path class="st0" d="M322.7,34.3c-3.8,0-6.8,3.1-6.8,6.8c0,0.4,0.1,0.8,0.1,1.2l-60.3,60.4l-21.2-21.3c-4.5-4.5-10.8-7.1-17.3-7.1
		c-2.3,0-4.5,0.3-6.7,1c-0.9-0.5-1.9-0.7-3-0.7c-3.8,0-6.8,3.1-6.8,6.8s3.1,6.8,6.8,6.8c3.3,0,6.1-2.3,6.7-5.5c1-0.2,2-0.3,3-0.3
		c4.3,0,8.5,1.7,11.5,4.8l27,27l66.3-66.3c0.3,0,0.5,0.1,0.8,0.1c3.8,0,6.8-3.1,6.8-6.8S326.4,34.3,322.7,34.3z M203.8,81.3
		c0-1.5,0.9-2.8,2.2-3.3c0.2-0.1,0.4-0.2,0.7-0.2c0.2,0,0.5-0.1,0.7-0.1c2,0,3.6,1.6,3.6,3.6c0,0.3-0.1,0.6-0.1,0.9
		c0,0.1,0,0.1-0.1,0.2c-0.1,0.3-0.2,0.5-0.3,0.7c0,0,0,0,0,0.1c-0.3,0.5-0.8,1-1.4,1.3l0,0c-0.5,0.3-1,0.4-1.6,0.4
		C205.4,84.9,203.8,83.3,203.8,81.3z M322.7,37.5c2,0,3.6,1.6,3.6,3.6s-1.6,3.6-3.6,3.6c-0.2,0-0.5,0-0.7-0.1
		c-0.7-0.1-1.3-0.5-1.8-1c-0.7-0.7-1.1-1.5-1.1-2.5C319.1,39.1,320.7,37.5,322.7,37.5z"/>
	<path class="st1" d="M374.8,41.1c0-3.8-3.1-6.8-6.8-6.8c-3.8,0-6.8,3.1-6.8,6.8c0,0.7,0.1,1.4,0.3,2L261.5,143l-5.9,5.8l-44.3-44.4
		l5.9-5.8l38.5,38.5l89.3-89.3c0.3,0,0.6,0.1,0.9,0.1c3.8,0,6.8-3.1,6.8-6.8s-3.1-6.8-6.8-6.8c-3.8,0-6.8,3.1-6.8,6.8
		c0,0.4,0.1,0.7,0.1,1.1l-83.4,83.5l-32.7-32.8c-1.5-1.5-3.6-2.4-5.8-2.4s-4.3,0.9-5.8,2.4l-5.8,5.8c-1.5,1.5-2.4,3.6-2.4,5.8
		c0,2.2,0.9,4.3,2.4,5.8l44.3,44.3c1.5,1.5,3.6,2.4,5.8,2.4c2.2,0,4.3-0.9,5.8-2.4L368,47.9C371.7,47.9,374.8,44.8,374.8,41.1z
		 M345.8,37.5c2,0,3.6,1.6,3.6,3.6s-1.6,3.6-3.6,3.6c-0.2,0-0.5,0-0.7-0.1c-0.7-0.1-1.3-0.5-1.8-1c-0.7-0.7-1.1-1.5-1.1-2.5
		C342.2,39.1,343.8,37.5,345.8,37.5z M371.4,41.8L371.4,41.8C371.4,41.8,371.4,41.8,371.4,41.8c0,0.2-0.1,0.4-0.2,0.6
		c0,0.1-0.1,0.1-0.1,0.2c-0.1,0.1-0.1,0.2-0.2,0.4c0,0.1-0.1,0.1-0.2,0.2c-0.1,0.1-0.2,0.2-0.2,0.3c-0.1,0.1-0.1,0.1-0.2,0.2
		c-0.1,0.1-0.2,0.2-0.3,0.2c-0.1,0.1-0.1,0.1-0.2,0.2c-0.1,0.1-0.2,0.1-0.3,0.2c-0.1,0-0.2,0.1-0.2,0.1c-0.1,0.1-0.3,0.1-0.4,0.1
		c-0.1,0-0.1,0-0.2,0.1c-0.2,0-0.4,0.1-0.7,0.1c-2,0-3.6-1.6-3.6-3.6s1.6-3.6,3.6-3.6c2,0,3.6,1.6,3.6,3.6
		C371.5,41.4,371.5,41.6,371.4,41.8z"/>
	<path class="st0" d="M375.9,50.2c-3.8,0-6.8,3.1-6.8,6.8c0,0.4,0.1,0.8,0.1,1.2l-102,102c-3,3-7.2,4.8-11.5,4.8
		c-4.3,0-8.5-1.7-11.5-4.8l-30-30c0.1-0.3,0.1-0.7,0.1-1.1c0-3.8-3.1-6.8-6.8-6.8c-3.8,0-6.8,3.1-6.8,6.8c0,3.8,3.1,6.8,6.8,6.8
		c0.3,0,0.6-0.1,0.9-0.1l30,30c4.5,4.5,10.8,7.1,17.3,7.1c6.4,0,12.7-2.6,17.3-7.1L375.1,63.8c0.3,0,0.5,0.1,0.8,0.1
		c3.8,0,6.8-3.1,6.8-6.8C382.7,53.3,379.6,50.2,375.9,50.2z M207.4,125.7c1.1,0,2,0.5,2.7,1.2l0,0c0.1,0.2,0.3,0.3,0.4,0.5
		c0,0,0,0,0,0c0.1,0.2,0.2,0.4,0.3,0.6c0,0.1,0,0.1,0.1,0.2c0.1,0.2,0.1,0.3,0.1,0.5c0,0.2,0.1,0.5,0.1,0.7c0,2-1.6,3.6-3.6,3.6
		c-0.2,0-0.4,0-0.7-0.1c-0.1,0-0.2-0.1-0.4-0.1c-0.1,0-0.2,0-0.2-0.1c-0.2-0.1-0.3-0.1-0.5-0.2c0,0,0,0-0.1,0
		c-0.2-0.1-0.3-0.2-0.5-0.3c-0.8-0.7-1.3-1.7-1.3-2.8C203.8,127.3,205.4,125.7,207.4,125.7z M379.5,57.1
		C379.5,57.1,379.5,57.1,379.5,57.1c0,1.1-0.4,1.9-1.1,2.6c0,0,0,0,0,0c-0.1,0.1-0.3,0.3-0.5,0.4c-0.1,0-0.1,0.1-0.2,0.1
		c-0.1,0.1-0.3,0.2-0.4,0.2c-0.1,0-0.2,0.1-0.3,0.1c-0.1,0-0.2,0.1-0.3,0.1c-0.2,0-0.5,0.1-0.7,0.1c-0.2,0-0.5,0-0.7-0.1
		c-0.7-0.1-1.3-0.5-1.8-1c-0.7-0.7-1.1-1.5-1.1-2.5c0-0.2,0-0.5,0.1-0.7c0-0.1,0.1-0.2,0.1-0.3c0-0.1,0.1-0.2,0.1-0.4
		c0.1-0.1,0.1-0.3,0.2-0.4c0-0.1,0.1-0.1,0.1-0.2c0.1-0.2,0.2-0.3,0.4-0.5c0,0,0,0,0-0.1c0.6-0.6,1.5-1.1,2.5-1.1c0,0,0.1,0,0.1,0
		C377.9,53.5,379.5,55.1,379.5,57.1z"/>
</g>
<g>
	<path class="st0" d="M154.9,194.3l-2.3,0.3l-5.6,24.2h-5.2l-5.1-18.4h-0.1l-5.1,18.4h-5.2l-5.7-24.2l-2.3-0.3V191h10.2v3.4
		l-2.5,0.4l3.2,15.2l0.1,0l5.2-19.1h4.1l5.3,19.1l0.1,0l3.2-15.2l-2.5-0.4V191h10.2V194.3z"/>
	<path class="st0" d="M165.9,219.2c-3,0-5.4-1-7.1-2.9c-1.8-1.9-2.7-4.3-2.7-7.3v-0.8c0-3.1,0.8-5.6,2.5-7.6c1.7-2,3.9-3,6.8-3
		c2.8,0,5,0.8,6.5,2.5c1.5,1.7,2.3,4,2.3,6.8v3h-12.3l0,0.1c0.1,1.4,0.6,2.5,1.4,3.4c0.8,0.9,1.9,1.3,3.3,1.3c1.2,0,2.3-0.1,3.1-0.4
		c0.8-0.2,1.7-0.6,2.7-1.2l1.5,3.4c-0.9,0.7-2,1.2-3.3,1.7C169.1,218.9,167.6,219.2,165.9,219.2z M165.4,202c-1,0-1.8,0.4-2.4,1.2
		c-0.6,0.8-1,1.8-1.1,3.1l0.1,0.1h6.8v-0.5c0-1.2-0.3-2.1-0.8-2.8C167.4,202.4,166.6,202,165.4,202z"/>
	<path class="st0" d="M196.9,209c0,3.1-0.7,5.5-2.1,7.4c-1.4,1.8-3.4,2.8-6,2.8c-1.2,0-2.3-0.3-3.2-0.8c-0.9-0.5-1.6-1.2-2.3-2.2
		l-0.4,2.5h-4.8v-25.9l-3-0.6V189h8.5v11.3c0.6-0.8,1.3-1.5,2.1-1.9c0.8-0.4,1.8-0.7,2.9-0.7c2.6,0,4.6,1,6,3c1.4,2,2.1,4.6,2.1,7.9
		V209z M191.3,208.6c0-2-0.3-3.6-0.9-4.8c-0.6-1.2-1.6-1.8-3-1.8c-0.9,0-1.6,0.2-2.2,0.5c-0.6,0.4-1.1,0.9-1.4,1.6v8.7
		c0.3,0.6,0.8,1.1,1.4,1.5c0.6,0.3,1.3,0.5,2.2,0.5c1.4,0,2.4-0.5,3-1.5c0.6-1,0.9-2.4,0.9-4.3V208.6z"/>
	<path class="st0" d="M208.6,215.4l2-0.3L219,191h5.7l8.4,24.2l2,0.3v3.3h-9.5v-3.3l1.9-0.3l-1.2-3.8h-9l-1.2,3.8l1.9,0.3v3.3h-9.5
		V215.4z M218.7,207.1h6.4l-3.1-9.8h-0.1L218.7,207.1z"/>
	<path class="st0" d="M246.8,214.9c1,0,1.8-0.3,2.4-0.9c0.6-0.6,0.9-1.4,0.9-2.3h5l0.1,0.1c0.1,2.1-0.7,3.8-2.3,5.2
		c-1.6,1.4-3.6,2.1-6,2.1c-3.1,0-5.5-1-7.1-2.9c-1.7-1.9-2.5-4.4-2.5-7.5v-0.6c0-3,0.9-5.5,2.6-7.5c1.7-2,4.2-2.9,7.3-2.9
		c1.7,0,3.2,0.2,4.5,0.7c1.3,0.5,2.4,1.2,3.3,2.1l0.1,5.5h-4.5l-0.9-3.2c-0.3-0.2-0.6-0.4-1-0.6c-0.4-0.2-0.9-0.2-1.4-0.2
		c-1.6,0-2.7,0.6-3.3,1.7c-0.6,1.1-1,2.6-1,4.4v0.6c0,1.8,0.3,3.3,0.9,4.5C244.3,214.3,245.3,214.9,246.8,214.9z"/>
	<path class="st0" d="M257.8,208.6c0-3.3,0.7-5.9,2.1-7.9c1.4-2,3.4-3,6-3c1.1,0,2.1,0.2,3,0.7c0.9,0.5,1.6,1.2,2.2,2.1l0.4-2.5h4.8
		v24.7l2.7,0.6v3.4h-11v-3.4l2.7-0.6v-5.9c-0.6,0.8-1.3,1.3-2.1,1.7c-0.8,0.4-1.8,0.6-2.8,0.6c-2.5,0-4.5-0.9-5.9-2.8
		c-1.4-1.9-2.1-4.3-2.1-7.4V208.6z M263.4,209c0,1.8,0.3,3.3,0.9,4.3c0.6,1,1.6,1.6,3,1.6c0.8,0,1.5-0.1,2.1-0.4
		c0.6-0.3,1.1-0.7,1.4-1.3v-9.2c-0.4-0.6-0.8-1.1-1.4-1.4c-0.6-0.3-1.3-0.5-2.1-0.5c-1.4,0-2.4,0.6-3,1.8c-0.6,1.2-0.9,2.8-0.9,4.8
		V209z"/>
	<path class="st0" d="M294.2,216.1c-0.7,1-1.5,1.7-2.5,2.2s-2.1,0.8-3.3,0.8c-2.2,0-3.9-0.7-5.1-2.1c-1.2-1.4-1.9-3.6-1.9-6.5V202
		l-2.3-0.6v-3.4h2.3h5.6v12.5c0,1.5,0.3,2.6,0.8,3.2c0.5,0.7,1.3,1,2.2,1c0.9,0,1.6-0.1,2.3-0.4c0.6-0.3,1.2-0.7,1.6-1.2V202
		l-2.4-0.6v-3.4h2.4h5.6v16.7l2.5,0.6v3.3h-7.4L294.2,216.1z"/>
	<path class="st0" d="M304,215.4l2.7-0.6V202l-3-0.6v-3.4h8.6v16.7l2.7,0.6v3.3H304V215.4z M312.3,193.2h-5.6V189h5.6V193.2z"/>
	<path class="st0" d="M333.6,205.2h-3.7l-0.6-2.6c-0.4-0.3-0.9-0.6-1.4-0.8c-0.6-0.2-1.2-0.3-1.9-0.3c-1,0-1.8,0.2-2.3,0.7
		c-0.6,0.4-0.9,1-0.9,1.7c0,0.6,0.3,1.1,0.8,1.6c0.5,0.4,1.6,0.8,3.3,1.1c2.6,0.5,4.5,1.3,5.7,2.2c1.2,1,1.9,2.3,1.9,4.1
		c0,1.9-0.8,3.4-2.4,4.6c-1.6,1.2-3.7,1.8-6.3,1.8c-1.6,0-3.1-0.2-4.4-0.7c-1.3-0.5-2.5-1.1-3.5-2l-0.1-4.6h3.9l0.8,2.7
		c0.3,0.3,0.8,0.5,1.4,0.6c0.6,0.1,1.2,0.2,1.8,0.2c1.1,0,2-0.2,2.6-0.6c0.6-0.4,0.9-1,0.9-1.7c0-0.6-0.3-1.1-0.9-1.6
		c-0.6-0.4-1.7-0.8-3.3-1.2c-2.4-0.5-4.3-1.2-5.5-2.2c-1.2-1-1.9-2.3-1.9-4c0-1.7,0.7-3.2,2.1-4.5c1.4-1.3,3.5-1.9,6.1-1.9
		c1.6,0,3.1,0.2,4.6,0.6s2.6,1,3.4,1.7L333.6,205.2z"/>
	<path class="st0" d="M336.7,215.4l2.7-0.6V202l-3-0.6v-3.4h8.6v16.7l2.7,0.6v3.3h-10.9V215.4z M345,193.2h-5.6V189h5.6V193.2z"/>
	<path class="st0" d="M357.7,193v5.1h3.6v3.9h-3.6v10.5c0,0.8,0.2,1.4,0.5,1.7c0.3,0.3,0.8,0.5,1.3,0.5c0.4,0,0.7,0,1,0
		c0.3,0,0.6-0.1,1-0.2l0.5,4c-0.6,0.2-1.2,0.3-1.9,0.4c-0.6,0.1-1.3,0.1-2,0.1c-1.9,0-3.4-0.5-4.4-1.6c-1-1.1-1.6-2.7-1.6-5V202h-3
		v-3.9h3V193H357.7z"/>
	<path class="st0" d="M363.9,215.4l2.7-0.6V202l-3-0.6v-3.4h8.6v16.7l2.7,0.6v3.3h-10.9V215.4z M372.2,193.2h-5.6V189h5.6V193.2z"/>
	<path class="st0" d="M376.7,208.2c0-3.1,0.9-5.6,2.6-7.6c1.7-2,4.1-3,7.2-3c3.1,0,5.4,1,7.2,2.9s2.6,4.5,2.6,7.6v0.4
		c0,3.1-0.9,5.6-2.6,7.6c-1.7,2-4.1,2.9-7.1,2.9c-3.1,0-5.5-1-7.2-2.9c-1.7-2-2.6-4.5-2.6-7.6V208.2z M382.3,208.6
		c0,1.9,0.3,3.4,1,4.5c0.7,1.1,1.7,1.7,3.2,1.7c1.4,0,2.5-0.6,3.2-1.7c0.7-1.1,1-2.7,1-4.5v-0.4c0-1.8-0.3-3.3-1-4.5
		c-0.7-1.2-1.7-1.7-3.2-1.7c-1.5,0-2.5,0.6-3.2,1.7c-0.7,1.2-1,2.7-1,4.5V208.6z"/>
	<path class="st0" d="M398.3,215.4l2.7-0.6V202l-3-0.6v-3.4h8.2l0.2,3c0.7-1.1,1.5-1.9,2.5-2.5c1-0.6,2.1-0.9,3.4-0.9
		c2.1,0,3.7,0.7,4.9,2c1.2,1.3,1.8,3.4,1.8,6.2v9l2.7,0.6v3.3H411v-3.3l2.4-0.6v-9c0-1.4-0.3-2.4-0.8-2.9c-0.6-0.6-1.4-0.9-2.5-0.9
		c-0.7,0-1.4,0.1-2,0.4c-0.6,0.3-1.1,0.7-1.5,1.3v11.1l2.3,0.6v3.3h-10.5V215.4z"/>
</g>
</svg>
